<svg id="Layer_1" data-name="Layer 1" xmlns="http://www.w3.org/2000/svg" width="626" height="626" viewBox="0 0 626 626"><path d="M237,233.5c9.9,19.6,16.7,37.2,16.7,49.9,0,10.4-3.7,19.8-9.2,28.9,20.2,4.8,23.8,11,23.8,25.4,0,5.8-1.9,13.1-7,23.1-26.9,26.4-54.5,34.6-77.1,34.6a61.2,61.2,0,0,1-40.9-16.1c-11.7-12.4-17.8-27.6-17.8-45.9,0-20.6,5.8-37.7,12.8-53.8l6.7,2.6c-4.5,12.5-7.7,24.1-7.7,35.9s2.7,23.5,9.9,33.8c10.1,12.3,23,19.5,39.1,19.5s33.7-3.4,49.3-12.8c8.7-5.4,17.8-11.7,21.7-17,0-6.5-28.6-12.3-53.9-14.2l-1.2-1.6,8.2-17.8c19.4-2.9,26.9-7.5,30.8-12.5-3-12.6-9.5-27-18.1-43,4.1-6.6,8.6-13.3,12.7-19Zm-65.1,216c-7-6.7-13.2-12.2-20-17.8a148.1,148.1,0,0,1,13.5-16.3,165.1,165.1,0,0,1,19.5,18.3C180.1,440.6,176.7,445,171.9,449.5Zm33-2.2c-7-6.7-13.1-12.2-20-17.9a158.4,158.4,0,0,1,13.5-16.2A158.3,158.3,0,0,1,218,431.5C213.2,438.4,209.7,442.8,204.9,447.3Zm47.6-54.2a151.3,151.3,0,0,1,20.6,18.4,72.5,72.5,0,0,1-14.2,16.8c-6.7-6.4-13.4-11.9-20.2-17.7C243.3,404.4,247.9,398.5,252.5,393.1Z" fill="#369361"/><path d="M348.8,286.5c9.8,23.4,18.7,36.9,38.5,36.9h3.1v22h-3.6c-7.5,0-13-1.6-17.3-5.5h-.7c.2,2,.4,4.1.4,6a57.5,57.5,0,0,1-6.9,26.5c-13.5,23.8-28.2,34.1-40.9,34.1s-28.6-5.8-42.8-13.4l2.5-5.8c4.7,2.2,11,3.8,19.7,3.8,23,0,53.1-26,56.9-51.4a40.5,40.5,0,0,0-4.6-7.7,160.2,160.2,0,0,1-14.9-25.5c3.4-7.9,6.5-14.2,9.4-19.9Z" fill="#369361"/><path d="M401.2,323.4a96.6,96.6,0,0,0,25.3-3.5V319c-11.9-7.9-20-18.7-20-33.6,0-7.3,2.7-14.7,7.4-22.4,8-13.4,20.3-23,35.4-23s29.1,10.5,38,28l-3.2,3.4c-9.3-7.9-18.2-11-30.7-11-18.1,0-31.3,8.4-31.3,14.4,0,8.1,4.8,16.6,14.7,24.3,6.7,5.2,15.8,9.3,20.7,9.3,13.1,0,28.6-5.3,49-12.2l.9.9-9.1,21.2c-26.9,9.6-39.9,11-60.8,17.8-14.7,4.8-28.1,9.3-41.8,9.3h-5.3c-9.4,0-12-6.9-12-11.5s2.8-10.5,12-10.5Z" fill="#369361"/><path d="M444.8,610.9c-.7,21.5-17.1,44.2-39.1,53.1-30.8,12.5-55.3-3.9-66.6-31.7-6.9-17.1-8.6-35.1-5.9-49.3l7.2.4c-.4,12.2.6,23.3,4.4,32.8,10.5,26,34.1,32.8,54.9,24.4,19.2-7.8,32.1-30.9,32.6-47.7a115.5,115.5,0,0,0-37.5-43.6,123.1,123.1,0,0,1,4.9-21.7l1.3-.4c11,8.1,20.6,18.6,29,33.7h.1c3.5-17.5,7.5-35.5,16.3-53.5,6.5-13.2,17-27,31.1-32.7s28.2-2,36.8,5.5c5.9,5.1,9,11.5,11.4,17.3a47.3,47.3,0,0,1,2.9,16c.8,14.3-5.1,28.3-21.4,42.1-8.3,7.2-21.2,14.3-37.5,20.9-6.1,2.4-16.1,5-28.6,7.5C443.6,594.8,444.9,603.3,444.8,610.9ZM417.2,436.8a165.7,165.7,0,0,1,25.9,9.3,70.3,70.3,0,0,1-6.9,20.9c-8.6-3.4-16.8-5.9-25.4-8.8C412.8,450.8,414.9,443.5,417.2,436.8Zm53.5,115.6c15.1-6.1,29-16.3,37.6-25.7,6.2-6.7,10.1-12.4,8.4-16.7-7.6-12.8-22.9-18.8-37-13.1-18.8,7.6-33.2,33.5-40.1,64.2C446.1,560.7,456.5,558.1,470.7,552.4Z" fill="#369361"/><path d="M134,164.3c-.7,21.6-17,44.2-39.1,53.2-30.8,12.4-55.3-3.9-66.5-31.7-7-17.2-8.7-35.1-5.9-49.4l7.2.5c-.5,12.1.5,23.2,4.3,32.7,10.6,26.1,34.1,32.8,54.9,24.4,19.3-7.8,32.1-30.9,32.7-47.7-9-17.6-21.4-32.4-37.6-43.6A123.1,123.1,0,0,1,88.9,81l1.4-.4c11,8.1,20.6,18.7,28.9,33.8h.2c3.4-17.5,7.4-35.5,16.2-53.5,6.5-13.1,17-27,31.1-32.7s28.2-1.9,36.8,5.5c6,5.2,9.1,11.5,11.4,17.4s2.7,10.3,3,15.9c.8,14.3-5.2,28.4-21.4,42.1-8.4,7.3-21.2,14.3-37.6,20.9-6,2.5-16.1,5-28.5,7.5C132.9,148.2,134.1,156.7,134,164.3ZM106.4-9.7A152.9,152.9,0,0,1,132.3-.4a67,67,0,0,1-6.9,20.8c-8.6-3.3-16.8-5.9-25.3-8.7C102.1,4.2,104.1-3.1,106.4-9.7Zm53.5,115.6C175,99.8,189,89.5,197.5,80.2c6.2-6.8,10.2-12.5,8.4-16.7-7.5-12.9-22.9-18.9-37-13.1-18.7,7.5-33.2,33.5-40,64.1C135.4,114.1,145.8,111.6,159.9,105.9Z" fill="#369361"/><path d="M647,372c-.7,21.5-17,44.2-39.1,53.1-30.8,12.4-55.3-3.9-66.6-31.7-6.9-17.1-8.6-35.1-5.8-49.3l7.1.4c-.4,12.2.6,23.2,4.4,32.8,10.5,26,34.1,32.7,54.9,24.3,19.2-7.7,32.1-30.8,32.6-47.7A115.1,115.1,0,0,0,597,310.4a124,124,0,0,1,4.9-21.8l1.3-.3c11.1,8.1,20.7,18.6,29,33.7h.1c3.5-17.4,7.5-35.5,16.3-53.4,6.5-13.2,17-27,31.1-32.7s28.2-2,36.8,5.4c5.9,5.2,9,11.5,11.4,17.4s2.7,10.4,3,16c.7,14.3-5.2,28.3-21.5,42.1-8.3,7.2-21.2,14.2-37.5,20.9-6,2.4-16.1,5-28.6,7.4C645.8,355.8,647.1,364.4,647,372ZM619.4,197.9a152.9,152.9,0,0,1,25.9,9.3,71.3,71.3,0,0,1-6.9,20.9c-8.6-3.4-16.8-6-25.4-8.8C615,211.8,617.1,204.6,619.4,197.9Zm53.5,115.6c15.1-6.1,29-16.3,37.6-25.7,6.2-6.7,10.2-12.4,8.4-16.7-7.6-12.8-22.9-18.8-37-13.1-18.8,7.6-33.2,33.5-40,64.2C648.3,321.8,658.8,319.2,672.9,313.5Z" fill="#369361"/><path d="M321.6,146.6c-15,6.8-36.1,3.4-49.7-8.7-19.1-16.9-16.3-39.3-1-56.5,9.4-10.6,21.1-17.9,31.8-20.9l2.2,5.1c-8.5,3.9-15.8,8.3-21,14.2-14.3,16.1-10.9,34.6,2,46s32.1,11.4,43.9,6.1a89.8,89.8,0,0,0,17.1-40.6,90.4,90.4,0,0,1,16.5-4.1l.7.8c-1.8,10.3-5.7,20.5-13.2,31.4h.1c13.1-3.6,26.9-7,42.2-7.1,11.3-.1,24.3,2.4,33.1,10.2s10.9,18.6,8.7,27c-1.5,5.9-4.7,10.2-8,13.8a35.5,35.5,0,0,1-9.9,7.5c-9.5,5.4-21.2,6.1-36.2-.3-7.8-3.3-17-9.7-27.1-18.7-3.8-3.3-9-9.3-14.9-17C332.3,140.3,326.9,144,321.6,146.6Zm49-2.2a81.5,81.5,0,0,0,30.5,17c6.7,2,12,2.8,14.3.1,6.2-9.6,5.1-22.1-3.6-29.9-11.6-10.3-34.4-11.3-57.7-5.5C356.6,130.4,361.9,136.7,370.6,144.4Zm61.1-76.2a116.2,116.2,0,0,1,2.4,21,54,54,0,0,1-16.7,2.4c-.6-7-1.6-13.6-2.6-20.4C420.6,70,426.3,68.9,431.7,68.2Z" fill="#369361"/><path d="M531.4,101.7c-15,6.9-36.1,3.4-49.8-8.7-19-16.9-16.2-39.3-.9-56.5,9.4-10.6,21.1-17.9,31.8-20.8l2.2,5.1c-8.5,3.8-15.8,8.2-21,14.1-14.3,16.1-10.9,34.6,2,46s32.1,11.5,43.9,6.1a88.1,88.1,0,0,0,17-40.6,100.7,100.7,0,0,1,16.6-4.1l.7.8a75.5,75.5,0,0,1-13.3,31.4h.1c13.2-3.6,27-7,42.3-7.1,11.2,0,24.3,2.5,33,10.2s11,18.7,8.8,27.1c-1.5,5.8-4.8,10.1-8,13.8a36.6,36.6,0,0,1-9.9,7.4c-9.6,5.4-21.2,6.1-36.2-.3-7.8-3.3-17.1-9.7-27.2-18.6-3.7-3.3-8.9-9.4-14.8-17.1C542.1,95.4,536.7,99.2,531.4,101.7Zm49-2.2a83.3,83.3,0,0,0,30.5,17.1c6.7,1.9,11.9,2.7,14.3.1,6.2-9.6,5.1-22.2-3.7-29.9-11.6-10.3-34.3-11.4-57.7-5.6C566.3,85.5,571.6,91.8,580.4,99.5Zm61-76.1a123.3,123.3,0,0,1,2.5,20.9,54,54,0,0,1-16.7,2.4c-.6-7-1.6-13.5-2.6-20.4C630.4,25.2,636.1,24.1,641.4,23.4Z" fill="#369361"/><path d="M149,612.4c-10.4,9.7-28.7,12.7-43.2,6.5-20.2-8.6-24-27.7-16.3-45.9,4.8-11.3,12.4-20.5,20.4-25.9l3.1,3.6c-5.9,5.5-10.6,11.1-13.3,17.4-7.2,17.1.7,31.3,14.3,37.1s29.5.5,37.6-7.1a76.3,76.3,0,0,0,2.8-37.9,81.5,81.5,0,0,1,12.5-7.9l.8.4a67.5,67.5,0,0,1-2.3,29.4h.1c9.8-6.5,20.1-13.1,32.7-17.4,9.2-3.1,20.5-4.7,29.8-.7s14.1,12.2,14.6,19.7c.4,5.2-1.1,9.6-2.7,13.5a32.4,32.4,0,0,1-6.1,8.8c-6.3,7.1-15.7,10.9-29.7,9.7-7.3-.5-16.6-3.2-27.4-7.8-3.9-1.7-9.8-5.2-16.8-9.9C156,604.3,152.6,608.9,149,612.4Zm39.4-15.3a72.6,72.6,0,0,0,29.7,5.6c6-.3,10.5-1.1,11.7-3.9a19.6,19.6,0,0,0-11.2-23.4c-12.3-5.3-31.2.1-48.7,11.3C173.1,589.5,179.2,593.2,188.4,597.1ZM217.5,518a114.6,114.6,0,0,1,7.8,16.5,45.3,45.3,0,0,1-13,6.5c-2.5-5.5-5.1-10.6-7.8-15.9C208.9,522.5,213.3,520.1,217.5,518Z" fill="#369361"/><path d="M-14.4,335.3C-24.8,345-43,348-57.5,341.8c-20.2-8.6-24.1-27.7-16.3-45.9,4.8-11.3,12.4-20.5,20.3-25.9l3.2,3.6c-5.9,5.5-10.7,11.1-13.3,17.4-7.3,17.1.6,31.3,14.3,37.1s29.4.5,37.5-7.1a76.3,76.3,0,0,0,2.9-37.9,80.3,80.3,0,0,1,12.4-7.9l.8.4c1.4,9,.9,18.4-2.2,29.4h.1c9.8-6.5,20.1-13.1,32.6-17.4,9.2-3.1,20.6-4.7,29.8-.7s14.2,12.2,14.7,19.7c.4,5.2-1.2,9.6-2.8,13.5a32.4,32.4,0,0,1-6.1,8.8c-6.3,7.1-15.7,10.9-29.7,9.7-7.3-.5-16.6-3.2-27.3-7.8-4-1.7-9.9-5.2-16.9-9.9C-7.4,327.2-10.8,331.8-14.4,335.3ZM25.1,320a71.9,71.9,0,0,0,29.6,5.6c6-.3,10.6-1.1,11.8-3.9,2.4-9.5-2-19.5-11.2-23.4-12.3-5.3-31.2.1-48.8,11.3C9.7,312.4,15.8,316.1,25.1,320Zm29-79.1a96.7,96.7,0,0,1,7.8,16.5,45.3,45.3,0,0,1-13,6.5c-2.4-5.5-5.1-10.6-7.7-15.9C45.6,245.4,49.9,243,54.1,240.9Z" fill="#369361"/><path d="M100.5,434.5c-13.9,5.5-28.1,10.4-41.8,14.8l-.2-.2,1.7-7.8c15.9-5.3,32.4-10.9,44.6-15.7l.3.4Z" fill="#369361"/><path d="M312.6,475.2c-13.9,5.5-28.1,10.4-41.8,14.8l-.2-.2,1.7-7.8c15.9-5.4,32.4-10.9,44.6-15.7l.3.4Z" fill="#369361"/><path d="M481.2,186.1c-14,5.5-28.1,10.4-41.8,14.8l-.2-.2,1.7-7.8c15.8-5.4,32.3-10.9,44.6-15.7l.2.4Z" fill="#369361"/><path d="M349.5,230.7c-14,5.6-28.1,10.4-41.8,14.8l-.3-.2,1.7-7.8c15.9-5.3,32.4-10.9,44.7-15.6l.2.3Z" fill="#369361"/><path d="M567.8,451.7c-14,5.6-28.1,10.5-41.8,14.9l-.2-.3,1.7-7.8c15.8-5.3,32.3-10.8,44.6-15.6l.2.3Z" fill="#369361"/><path d="M205.5,148.1c-14,5.6-28.1,10.4-41.8,14.8l-.3-.2,1.7-7.8c15.9-5.3,32.4-10.9,44.7-15.6l.2.3Z" fill="#369361"/></svg>