<svg id="Layer_1" data-name="Layer 1" xmlns="http://www.w3.org/2000/svg" width="256" height="256" viewBox="0 0 256 256"><path d="M115.7,49.5a65.4,65.4,0,0,0-27.5-.8c-6.6,1.3-13.3,3.8-17.7,8.8s-5.8,13.3-1.7,18.6,8.2,5.4,12.8,7.1,9.5,4.4,11,9.2-2.2,11.2-6.4,15.1A55.5,55.5,0,0,1,41.9,122" fill="none" stroke="#00625a" stroke-miterlimit="10" stroke-width="4"/><path d="M121.1,139,69.6,171l68.4-.2a356.3,356.3,0,0,0-67.4,34.3l103,.4a162.9,162.9,0,0,0-52.3,23.3" fill="none" stroke="#00625a" stroke-miterlimit="10" stroke-width="4"/><path d="M194.7,132.3a80.3,80.3,0,0,1-38.4-6.6c-6.2-2.8-12.3-6.5-16.1-12.2-6.6-9.6-5-23.5,2.3-32.7s19.3-13.8,31-14c8.1-.1,16.5,1.8,22.7,7.1,8.7,7.4,11.3,21,6.4,31.3s-16.8,16.8-28.2,16a25.1,25.1,0,0,1-16.8-7.5c-4.3-4.6-6.5-11.3-5.1-17.4s6.7-11.3,13-12" fill="none" stroke="#00625a" stroke-miterlimit="10" stroke-width="4"/><path d="M160.5,39.2a59.9,59.9,0,0,0,48.1,12.3c8.4-1.6,16.8-5.3,21.6-12.3s4.7-17.8-2-23.1c-4.7-3.7-11.2-3.9-17.2-3.3a71.6,71.6,0,0,0-37.1,15.7" fill="none" stroke="#00625a" stroke-miterlimit="10" stroke-width="4"/><path d="M41.2,14.3,12.9,33.4C6.8,37.5.4,42.1-1.7,49.1A17.2,17.2,0,0,0,2.2,65.2a19.6,19.6,0,0,0,15.5,6.2c8.3-.4,15.6-5.6,23.8-7,2.9-.5,6.1-.5,8.3,1.5s2.5,8.3.5,12.2C46,86.8,38.1,93.1,29.8,98s-17.2,8.8-25.2,14.2-15,12.9-17.5,22.3" fill="none" stroke="#00625a" stroke-miterlimit="10" stroke-width="4"/><path d="M27.8,130.7,11.2,173.2,38,169.3a77.8,77.8,0,0,1-5.7,30.9,42.6,42.6,0,0,0-2.6,7.6c-.4,2.7,0,5.7,1.8,7.7s8.5,2.7,13,1.8" fill="none" stroke="#00625a" stroke-miterlimit="10" stroke-width="4"/><path d="M173.2,165a183.9,183.9,0,0,0,61.8,5.8,43.8,43.8,0,0,1-15.6,32.8,24,24,0,0,0-4.7,4.3,6.6,6.6,0,0,0-1.2,5.9,6.2,6.2,0,0,0,5,3.5,18.8,18.8,0,0,0,6.2-.5c3.8-.7,8.2-1.2,11,1.6s2.4,6.2,2.2,9.6l-1.2,23.8" fill="none" stroke="#00625a" stroke-miterlimit="10" stroke-width="4"/><path d="M228.9,131.9c6.4-4.4,12.8-9.2,16.8-15.9s5.4-15.3,1.7-22.1-12-10.3-19.4-13.1" fill="none" stroke="#00625a" stroke-miterlimit="10" stroke-width="4"/><path d="M128.1,5a47.5,47.5,0,0,1-18.8,10.9,20.2,20.2,0,0,1-8.4,1.2C94,16.4,88.7,10.8,84.1,5.6" fill="none" stroke="#00625a" stroke-miterlimit="10" stroke-width="4"/><path d="M36.4,257.7a49.7,49.7,0,0,1,61.4-24.6c6.6,2.3,13.3,6.9,14.9,13.8" fill="none" stroke="#00625a" stroke-miterlimit="10" stroke-width="4"/></svg>