<svg id="Layer_1" data-name="Layer 1" xmlns="http://www.w3.org/2000/svg" width="1000" height="1284.1" viewBox="0 0 1000 1284.1"><path d="M754.8,111.5C833.2-110.9-207.6-32.9,139.5,642.6-133.7,721.3,38.9,1182,276.1,945.7c38.9,99.4-243.6,224.4-243.6,338.4H850.4C862.5,1132.3,682.9,1099,682.9,1099c-10.1-51.5,27.1-44.8,27.1-44.8,98.4,134.3,171,1.9,169.4,97.1,102.2-63,96.2-163.1,55.7-233.6C915,882.7,983.3,777,938,734.4c34.8-29.4,3.3-84.2,3.3-84.2,25.3-21.8,20-45.2,20-45.2-17.6-9.6-29.1-62.8-29.1-62.8,103.6-55.4,57.6-93.8,57.6-93.8S869.9,361.9,871.3,342.8s10.5-27,8.6-33.8S777.5,105.7,754.8,111.5Z" fill="#231f20" fill-rule="evenodd"/><path d="M931.5,411.6l18.2,24.6" fill="#231f20" fill-rule="evenodd"/></svg>